<svg version="1.1" xmlns="http://www.w3.org/2000/svg" viewBox="0 0 1600 700" width="1600" height="700"><!-- svg-source:excalidraw --><metadata></metadata><defs><style class="style-fonts">
      </style></defs><rect x="0" y="0" width="1600" height="700" fill="#080808"></rect><g stroke-linecap="round" transform="translate(8 8) rotate(0 792 342)"><path d="M0 0 L1584 0 L1584 684 L0 684" stroke="none" stroke-width="0" fill="#080808"></path><path d="M0 0 C575.03 0, 1150.06 0, 1584 0 M0 0 C610.17 0, 1220.34 0, 1584 0 M1584 0 C1584 172.91, 1584 345.81, 1584 684 M1584 0 C1584 259.22, 1584 518.45, 1584 684 M1584 684 C1123.67 684, 663.34 684, 0 684 M1584 684 C1207.89 684, 831.79 684, 0 684 M0 684 C0 469.1, 0 254.2, 0 0 M0 684 C0 471.55, 0 259.1, 0 0" stroke="#080808" stroke-width="2" fill="none"></path></g><g transform="translate(28 20) rotate(0 112.5966796875 14.375)"><text x="0" y="20.58544921875" font-family="Arial, Helvetica, sans-serif" font-size="23px" fill="#f2f2ef" text-anchor="start" style="white-space: pre;" direction="ltr" dominant-baseline="alphabetic">01  DEPOSIT + SAVE</text></g><g transform="translate(308 20) rotate(0 113.5625 14.375)"><text x="0" y="20.58544921875" font-family="Arial, Helvetica, sans-serif" font-size="23px" fill="#f2f2ef" text-anchor="start" style="white-space: pre;" direction="ltr" dominant-baseline="alphabetic">02  PROVE LOCALLY</text></g><g transform="translate(823 20) rotate(0 142.18896484375 14.375)"><text x="0" y="20.58544921875" font-family="Arial, Helvetica, sans-serif" font-size="23px" fill="#f2f2ef" text-anchor="start" style="white-space: pre;" direction="ltr" dominant-baseline="alphabetic">03  AUTHORIZE + SETTLE</text></g><g stroke-linecap="round" transform="translate(28 118) rotate(0 105 67.5)"><path d="M32 0 C69.53 -0.71, 103.89 1.95, 178 0 M32 0 C64.33 -0.81, 97.12 -1.5, 178 0 M178 0 C198.15 -2.01, 211.54 12.4, 210 32 M178 0 C201.46 -2.34, 207.82 9.96, 210 32 M210 32 C208.87 52.26, 211.14 67.35, 210 103 M210 32 C209.95 50.87, 210.19 70.5, 210 103 M210 103 C212.06 123.4, 199.65 133.2, 178 135 M210 103 C212.42 123.3, 200.27 132.89, 178 135 M178 135 C126.03 132.45, 75.63 133.27, 32 135 M178 135 C144.99 133.86, 112.76 132.92, 32 135 M32 135 C9.21 135.73, -0.59 124.37, 0 103 M32 135 C11.13 136.06, -1.14 125.22, 0 103 M0 103 C0.49 81.48, 1.47 58.53, 0 32 M0 103 C1.49 87.16, -0.26 69.35, 0 32 M0 32 C1.62 9.94, 9.83 -1.47, 32 0 M0 32 C0.33 10.54, 8.43 1.64, 32 0" stroke="#f2f2ef" stroke-width="1.6" fill="none"></path></g><g transform="translate(46 135) rotate(0 31.52392578125 14.375)"><text x="0" y="20.58544921875" font-family="Arial, Helvetica, sans-serif" font-size="23px" fill="#f2f2ef" text-anchor="start" style="white-space: pre;" direction="ltr" dominant-baseline="alphabetic">Wallet</text></g><g transform="translate(46 174) rotate(0 66.1474609375 25)"><text x="0" y="17.900390625" font-family="Arial, Helvetica, sans-serif" font-size="20px" fill="#aaa" text-anchor="start" style="white-space: pre;" direction="ltr" dominant-baseline="alphabetic">Deposit tokens</text><text x="0" y="42.900390625" font-family="Arial, Helvetica, sans-serif" font-size="20px" fill="#aaa" text-anchor="start" style="white-space: pre;" direction="ltr" dominant-baseline="alphabetic">+ commitment</text></g><g stroke-linecap="round"><g transform="translate(246.5 185) rotate(0 26.5 0)"><path d="M0 0 C21.68 -1.81, 40.34 1.2, 53 0 M0 0 C12.88 -0.28, 25.79 1.08, 53 0" stroke="#f2f2ef" stroke-width="1.6" fill="none"></path></g><g transform="translate(246.5 185) rotate(0 26.5 0)"><path d="M29.68 9.02 C39.87 3.98, 47.26 3.24, 53 0 M29.68 9.02 C35.1 6.33, 40.55 5.28, 53 0" stroke="#f2f2ef" stroke-width="1.6" fill="none"></path></g><g transform="translate(246.5 185) rotate(0 26.5 0)"><path d="M29.34 -8.08 C39.55 -6.53, 47.07 -0.68, 53 0 M29.34 -8.08 C34.87 -6.45, 40.4 -3.17, 53 0" stroke="#f2f2ef" stroke-width="1.6" fill="none"></path></g></g><mask></mask><g stroke-linecap="round" transform="translate(308 118) rotate(0 122.5 67.5)"><path d="M32 0 C73.2 -1.63, 119.06 -2.18, 213 0 M32 0 C88.7 -0.07, 147.34 1.8, 213 0 M213 0 C236.18 -2.04, 243.1 10.05, 245 32 M213 0 C233.21 1.86, 244.76 8.7, 245 32 M245 32 C244.67 59.64, 243.82 88.35, 245 103 M245 32 C246.28 48.2, 245.4 64.44, 245 103 M245 103 C247.1 123.44, 235.15 133.17, 213 135 M245 103 C246.16 124.6, 233.12 133.33, 213 135 M213 135 C171.72 134.85, 132.14 133.88, 32 135 M213 135 C157.53 133.7, 103.23 133.35, 32 135 M32 135 C11.07 135.92, -0.99 125.1, 0 103 M32 135 C11.03 135.22, 2.2 124.97, 0 103 M0 103 C-1.92 77.88, -2.32 57.38, 0 32 M0 103 C1.31 74.79, 0.09 46.58, 0 32 M0 32 C0.29 10.55, 8.72 1.43, 32 0 M0 32 C-1.9 9.81, 11.13 -2.07, 32 0" stroke="#f2f2ef" stroke-width="1.6" fill="none"></path></g><g transform="translate(326 135) rotate(0 62.637939453125 14.375)"><text x="0" y="20.58544921875" font-family="Arial, Helvetica, sans-serif" font-size="23px" fill="#f2f2ef" text-anchor="start" style="white-space: pre;" direction="ltr" dominant-baseline="alphabetic">Privacy pool</text></g><g transform="translate(326 174) rotate(0 86.1328125 25)"><text x="0" y="17.900390625" font-family="Arial, Helvetica, sans-serif" font-size="20px" fill="#aaa" text-anchor="start" style="white-space: pre;" direction="ltr" dominant-baseline="alphabetic">Stores commitment</text><text x="0" y="42.900390625" font-family="Arial, Helvetica, sans-serif" font-size="20px" fill="#aaa" text-anchor="start" style="white-space: pre;" direction="ltr" dominant-baseline="alphabetic">and holds tokens</text></g><g stroke-linecap="round"><g transform="translate(133 260.5) rotate(0 0 39.5)"><path d="M0 0 C-1.23 18.14, -1.36 34.53, 0 79" stroke="#f2f2ef" stroke-width="2.1" fill="none" stroke-dasharray="8 9.6"></path></g><g transform="translate(133 260.5) rotate(0 0 39.5)"><path d="M-9.14 55.73 C-8.08 61.24, -6.13 65.21, 0 79" stroke="#f2f2ef" stroke-width="2.1" fill="none"></path></g><g transform="translate(133 260.5) rotate(0 0 39.5)"><path d="M7.96 55.3 C5.17 61.01, 3.27 65.08, 0 79" stroke="#f2f2ef" stroke-width="2.1" fill="none"></path></g></g><mask></mask><g transform="translate(151 289) rotate(0 17.95458984375 10.625)"><text x="0" y="15.21533203125" font-family="Arial, Helvetica, sans-serif" font-size="17px" fill="#aaa" text-anchor="start" style="white-space: pre;" direction="ltr" dominant-baseline="alphabetic">save</text></g><g stroke-linecap="round" transform="translate(28 348) rotate(0 105 65)"><path d="M32 0 C83.65 -1.29, 136.45 -2.27, 178 0 M32 0 C84.98 -2.3, 139.69 -1.84, 178 0 M178 0 C200.95 -0.21, 208.29 12.76, 210 32 M178 0 C199.98 -1.11, 209.39 10.17, 210 32 M210 32 C210.76 46.34, 212.13 62.41, 210 98 M210 32 C208.96 53.14, 208.49 73.98, 210 98 M210 98 C210.23 118.28, 197.88 128.22, 178 130 M210 98 C208.45 118.22, 197.44 130.83, 178 130 M178 130 C145.86 128.2, 110.1 130.77, 32 130 M178 130 C138.57 129.8, 98.61 130.45, 32 130 M32 130 C10.86 131.92, 0.56 120.12, 0 98 M32 130 C12.44 130.17, -1.58 117.87, 0 98 M0 98 C-2.1 83.64, 0.93 68.33, 0 32 M0 98 C0.43 79.74, 1.2 62.61, 0 32 M0 32 C-0.75 11.07, 8.87 -0.78, 32 0 M0 32 C0.67 12.16, 9.84 0.78, 32 0" stroke="#f2f2ef" stroke-width="1.6" fill="none"></path></g><g transform="translate(46 365) rotate(0 61.368896484375 14.375)"><text x="0" y="20.58544921875" font-family="Arial, Helvetica, sans-serif" font-size="23px" fill="#f2f2ef" text-anchor="start" style="white-space: pre;" direction="ltr" dominant-baseline="alphabetic">Private note</text></g><g transform="translate(46 404) rotate(0 70.595703125 12.5)"><text x="0" y="17.900390625" font-family="Arial, Helvetica, sans-serif" font-size="20px" fill="#aaa" text-anchor="start" style="white-space: pre;" direction="ltr" dominant-baseline="alphabetic">Stays on device</text></g><g stroke-linecap="round"><g transform="translate(245.5 413) rotate(0 27 0)"><path d="M0 0 C11.34 1.86, 28.43 2.17, 54 0" stroke="#f2f2ef" stroke-width="2.1" fill="none" stroke-dasharray="8 9.6"></path></g><g transform="translate(245.5 413) rotate(0 27 0)"><path d="M31.09 10.01 C34.97 9.05, 44.04 6.86, 54 0" stroke="#f2f2ef" stroke-width="2.1" fill="none"></path></g><g transform="translate(245.5 413) rotate(0 27 0)"><path d="M30.02 -7.06 C34.09 -3.79, 43.42 -1.76, 54 0" stroke="#f2f2ef" stroke-width="2.1" fill="none"></path></g></g><mask></mask><g stroke-linecap="round" transform="translate(308 333) rotate(0 122.5 87.5)"><path d="M32 0 C79.4 3.55, 125.57 -0.22, 213 0 M32 0 C71.5 0.78, 108.52 1.93, 213 0 M213 0 C234.9 -0.97, 244.47 10.23, 245 32 M213 0 C232.75 0.24, 243.35 11.46, 245 32 M245 32 C246.46 56.78, 248.25 84.26, 245 143 M245 32 C244.1 68.87, 243.25 105.91, 245 143 M245 143 C243.65 163.37, 232.69 175.72, 213 175 M245 143 C243.17 164.05, 234.39 176.24, 213 175 M213 175 C173.24 175.69, 135.07 176.58, 32 175 M213 175 C166.95 176.24, 121 175.68, 32 175 M32 175 C12.21 175.15, -1.38 163.06, 0 143 M32 175 C8.62 177.38, 2.33 162.7, 0 143 M0 143 C-1.74 107.66, -0.61 75.15, 0 32 M0 143 C-1.17 119.71, -1.69 95.64, 0 32 M0 32 C0.58 11.97, 9.95 0.68, 32 0 M0 32 C1.98 9.54, 11.75 -0.83, 32 0" stroke="#f2f2ef" stroke-width="1.6" fill="none"></path></g><g transform="translate(326 350) rotate(0 74.789306640625 14.375)"><text x="0" y="20.58544921875" font-family="Arial, Helvetica, sans-serif" font-size="23px" fill="#f2f2ef" text-anchor="start" style="white-space: pre;" direction="ltr" dominant-baseline="alphabetic">Local ZK proof</text></g><g transform="translate(326 389) rotate(0 86.7236328125 25)"><text x="0" y="17.900390625" font-family="Arial, Helvetica, sans-serif" font-size="20px" fill="#aaa" text-anchor="start" style="white-space: pre;" direction="ltr" dominant-baseline="alphabetic">Binds the note,</text><text x="0" y="42.900390625" font-family="Arial, Helvetica, sans-serif" font-size="20px" fill="#aaa" text-anchor="start" style="white-space: pre;" direction="ltr" dominant-baseline="alphabetic">action and recipient</text></g><g stroke-linecap="round"><g transform="translate(561.5 413) rotate(0 29 0)"><path d="M0 0 C19.41 -2.43, 42.29 -1.51, 58 0 M0 0 C22.72 0.78, 42.86 0.23, 58 0" stroke="#f2f2ef" stroke-width="1.6" fill="none"></path></g><g transform="translate(561.5 413) rotate(0 29 0)"><path d="M34.65 8.94 C41.36 3.71, 51.29 1.25, 58 0 M34.65 8.94 C44.34 6.04, 51.67 2.2, 58 0" stroke="#f2f2ef" stroke-width="1.6" fill="none"></path></g><g transform="translate(561.5 413) rotate(0 29 0)"><path d="M34.37 -8.16 C41.32 -7.06, 51.35 -3.21, 58 0 M34.37 -8.16 C44.14 -4.67, 51.58 -2.12, 58 0" stroke="#f2f2ef" stroke-width="1.6" fill="none"></path></g></g><mask></mask><g stroke-linecap="round" transform="translate(628 353) rotate(0 75 65)"><path d="M32 0 C62.69 0.26, 96.21 2.5, 118 0 M32 0 C57.27 -1.39, 81.72 -1.12, 118 0 M118 0 C137.96 0.21, 148.57 11.36, 150 32 M118 0 C137.8 2.37, 148.93 11.03, 150 32 M150 32 C151.51 44.57, 151.71 61.03, 150 98 M150 32 C148.85 48.16, 148.7 65.65, 150 98 M150 98 C148.41 119.09, 139.39 131.08, 118 130 M150 98 C147.89 117.66, 140.17 129.32, 118 130 M118 130 C91.08 131.16, 66.46 130.58, 32 130 M118 130 C85.48 130.41, 50.73 129.7, 32 130 M32 130 C8.89 132.07, 2.03 117.91, 0 98 M32 130 C10.8 131.86, -0.84 118.37, 0 98 M0 98 C-2.04 84.04, -1.75 66.48, 0 32 M0 98 C0.88 77.65, 0.23 56.34, 0 32 M0 32 C1.72 9.69, 11.61 -0.72, 32 0 M0 32 C-0.51 9.96, 8.91 -1, 32 0" stroke="#f2f2ef" stroke-width="1.6" fill="none"></path></g><g transform="translate(646 370) rotate(0 23.224609375 13.75)"><text x="0" y="19.6904296875" font-family="Arial, Helvetica, sans-serif" font-size="22px" fill="#f2f2ef" text-anchor="start" style="white-space: pre;" direction="ltr" dominant-baseline="alphabetic">RPC</text></g><g transform="translate(646 409) rotate(0 50.01953125 25)"><text x="0" y="17.900390625" font-family="Arial, Helvetica, sans-serif" font-size="20px" fill="#aaa" text-anchor="start" style="white-space: pre;" direction="ltr" dominant-baseline="alphabetic">Direct</text><text x="0" y="42.900390625" font-family="Arial, Helvetica, sans-serif" font-size="20px" fill="#aaa" text-anchor="start" style="white-space: pre;" direction="ltr" dominant-baseline="alphabetic">submission</text></g><g stroke-linecap="round"><g transform="translate(785.5 413) rotate(0 14.5 0)"><path d="M0 0 C7.01 -0.03, 11.54 1.12, 29 0 M0 0 C9.33 -0.31, 18.94 -0.32, 29 0" stroke="#f2f2ef" stroke-width="1.6" fill="none"></path></g><g transform="translate(785.5 413) rotate(0 14.5 0)"><path d="M15.27 4.65 C18.8 3.62, 20.53 3.46, 29 0 M15.27 4.65 C19.67 2.91, 24.26 1.38, 29 0" stroke="#f2f2ef" stroke-width="1.6" fill="none"></path></g><g transform="translate(785.5 413) rotate(0 14.5 0)"><path d="M15.49 -5.26 C18.96 -4.18, 20.64 -2.22, 29 0 M15.49 -5.26 C19.8 -3.78, 24.31 -2.08, 29 0" stroke="#f2f2ef" stroke-width="1.6" fill="none"></path></g></g><mask></mask><g stroke-linecap="round" transform="translate(823 118) rotate(0 162.5 195)"><path d="M32 0 C102.84 -3.05, 175.68 -1.24, 293 0 M32 0 C98.28 0.54, 165.09 0.73, 293 0 M293 0 C313 2.06, 324.07 10.98, 325 32 M293 0 C312.26 2.42, 323.97 11.6, 325 32 M325 32 C325.41 101.62, 324.91 172.32, 325 358 M325 32 C322.6 115.43, 323.17 199.4, 325 358 M325 358 C323.16 377.88, 315.06 389.41, 293 390 M325 358 C325.04 379.8, 315.39 388.86, 293 390 M293 390 C207.11 390.64, 118.79 391.43, 32 390 M293 390 C212.27 389.5, 133.76 388.1, 32 390 M32 390 C10.78 391.62, -0.73 378.49, 0 358 M32 390 C8.97 390.33, -0.13 377.1, 0 358 M0 358 C2.13 237.8, 1.32 120.49, 0 32 M0 358 C1.4 240.62, 1.13 123.66, 0 32 M0 32 C-0.44 10.06, 9.14 -0.87, 32 0 M0 32 C-1.36 8.6, 10.01 -1.49, 32 0" stroke="#f2f2ef" stroke-width="1.6" fill="none"></path></g><g transform="translate(843 137) rotate(0 118.72265625 15)"><text x="0" y="21.48046875" font-family="Arial, Helvetica, sans-serif" font-size="24px" fill="#f2f2ef" text-anchor="start" style="white-space: pre;" direction="ltr" dominant-baseline="alphabetic">One frame transaction</text></g><g transform="translate(844 193) rotate(0 5.5615234375 12.5)"><text x="0" y="17.900390625" font-family="Arial, Helvetica, sans-serif" font-size="20px" fill="#aaa" text-anchor="start" style="white-space: pre;" direction="ltr" dominant-baseline="alphabetic">1</text></g><g transform="translate(876 193) rotate(0 56.6845703125 12.5)"><text x="0" y="17.900390625" font-family="Arial, Helvetica, sans-serif" font-size="20px" fill="#f2f2ef" text-anchor="start" style="white-space: pre;" direction="ltr" dominant-baseline="alphabetic">Expiry check</text></g><g transform="translate(844 247) rotate(0 5.5615234375 12.5)"><text x="0" y="17.900390625" font-family="Arial, Helvetica, sans-serif" font-size="20px" fill="#aaa" text-anchor="start" style="white-space: pre;" direction="ltr" dominant-baseline="alphabetic">2</text></g><g transform="translate(876 247) rotate(0 80.0390625 12.5)"><text x="0" y="17.900390625" font-family="Arial, Helvetica, sans-serif" font-size="20px" fill="#f2f2ef" text-anchor="start" style="white-space: pre;" direction="ltr" dominant-baseline="alphabetic">Pool verifies proof</text></g><g transform="translate(876 274) rotate(0 74.6572265625 10.625)"><text x="0" y="15.21533203125" font-family="Arial, Helvetica, sans-serif" font-size="17px" fill="#aaa" text-anchor="start" style="white-space: pre;" direction="ltr" dominant-baseline="alphabetic">Approves execution</text></g><g transform="translate(844 326) rotate(0 5.5615234375 12.5)"><text x="0" y="17.900390625" font-family="Arial, Helvetica, sans-serif" font-size="20px" fill="#aaa" text-anchor="start" style="white-space: pre;" direction="ltr" dominant-baseline="alphabetic">3</text></g><g transform="translate(876 326) rotate(0 110.0390625 12.5)"><text x="0" y="17.900390625" font-family="Arial, Helvetica, sans-serif" font-size="20px" fill="#f2f2ef" text-anchor="start" style="white-space: pre;" direction="ltr" dominant-baseline="alphabetic">Paymaster checks policy</text></g><g transform="translate(876 353) rotate(0 86.938232421875 10.625)"><text x="0" y="15.21533203125" font-family="Arial, Helvetica, sans-serif" font-size="17px" fill="#aaa" text-anchor="start" style="white-space: pre;" direction="ltr" dominant-baseline="alphabetic">Approves gas payment</text></g><g transform="translate(844 405) rotate(0 5.5615234375 12.5)"><text x="0" y="17.900390625" font-family="Arial, Helvetica, sans-serif" font-size="20px" fill="#aaa" text-anchor="start" style="white-space: pre;" direction="ltr" dominant-baseline="alphabetic">4</text></g><g transform="translate(876 405) rotate(0 92.841796875 12.5)"><text x="0" y="17.900390625" font-family="Arial, Helvetica, sans-serif" font-size="20px" fill="#f2f2ef" text-anchor="start" style="white-space: pre;" direction="ltr" dominant-baseline="alphabetic">Pool executes spend</text></g><g transform="translate(876 432) rotate(0 69.91748046875 10.625)"><text x="0" y="15.21533203125" font-family="Arial, Helvetica, sans-serif" font-size="17px" fill="#aaa" text-anchor="start" style="white-space: pre;" direction="ltr" dominant-baseline="alphabetic">Consumes nullifier</text></g><g stroke-linecap="round"><g transform="translate(1155.5 398) rotate(0 22 0)"><path d="M0 0 C14.12 -0.07, 28.27 0.83, 44 0 M0 0 C11.66 0.26, 22.56 -0.16, 44 0" stroke="#f2f2ef" stroke-width="1.6" fill="none"></path></g><g transform="translate(1155.5 398) rotate(0 22 0)"><path d="M23.32 7.5 C29.73 5.06, 36.16 3.47, 44 0 M23.32 7.5 C28.92 5.71, 33.76 3.34, 44 0" stroke="#f2f2ef" stroke-width="1.6" fill="none"></path></g><g transform="translate(1155.5 398) rotate(0 22 0)"><path d="M23.34 -7.55 C29.7 -5, 36.11 -1.6, 44 0 M23.34 -7.55 C28.96 -5.44, 33.81 -3.9, 44 0" stroke="#f2f2ef" stroke-width="1.6" fill="none"></path></g></g><mask></mask><g stroke-linecap="round" transform="translate(1208 333) rotate(0 77.5 67.5)"><path d="M32 0 C54.1 -1.38, 77.68 -0.47, 123 0 M32 0 C62.78 -0.99, 92.59 -1.35, 123 0 M123 0 C142.99 -0.96, 153.36 11.39, 155 32 M123 0 C142.5 -0.28, 155.06 11.9, 155 32 M155 32 C153.89 47.4, 154.89 63.65, 155 103 M155 32 C155.37 51.06, 155.55 68.59, 155 103 M155 103 C156.54 124.48, 142.96 133.73, 123 135 M155 103 C152.96 126.71, 146.66 133.36, 123 135 M123 135 C94.4 133.2, 67.76 134.55, 32 135 M123 135 C103.37 134.45, 83.59 133.86, 32 135 M32 135 C11.25 136.3, -0.72 125.01, 0 103 M32 135 C12.64 133.87, 1.08 123.5, 0 103 M0 103 C-0.65 81.95, -1.58 62.7, 0 32 M0 103 C1.2 85.7, -0.55 68.24, 0 32 M0 32 C1.78 8.59, 8.99 -0.57, 32 0 M0 32 C0.28 12.41, 11.2 -0.04, 32 0" stroke="#f2f2ef" stroke-width="1.6" fill="none"></path></g><g transform="translate(1226 350) rotate(0 22.01611328125 13.75)"><text x="0" y="19.6904296875" font-family="Arial, Helvetica, sans-serif" font-size="22px" fill="#f2f2ef" text-anchor="start" style="white-space: pre;" direction="ltr" dominant-baseline="alphabetic">Pool</text></g><g transform="translate(1226 389) rotate(0 46.1328125 25)"><text x="0" y="17.900390625" font-family="Arial, Helvetica, sans-serif" font-size="20px" fill="#aaa" text-anchor="start" style="white-space: pre;" direction="ltr" dominant-baseline="alphabetic">Atomic</text><text x="0" y="42.900390625" font-family="Arial, Helvetica, sans-serif" font-size="20px" fill="#aaa" text-anchor="start" style="white-space: pre;" direction="ltr" dominant-baseline="alphabetic">settlement</text></g><g stroke-linecap="round" transform="translate(1398 118) rotate(0 87.5 62.5)"><path d="M31.25 0 C65.7 -0.37, 100.11 -0.17, 143.75 0 M31.25 0 C65.3 0.15, 100.65 0, 143.75 0 M143.75 0 C165.3 -1.59, 174.75 10.47, 175 31.25 M143.75 0 C165.82 -2.11, 173.32 11.26, 175 31.25 M175 31.25 C175.93 47.33, 175.78 65.71, 175 93.75 M175 31.25 C175.99 51.31, 175.67 69.13, 175 93.75 M175 93.75 C173.73 112.81, 166.65 127.03, 143.75 125 M175 93.75 C173.36 114.71, 166.44 124.16, 143.75 125 M143.75 125 C114.17 123.22, 86.25 123.51, 31.25 125 M143.75 125 C113.43 124.28, 84.54 123.63, 31.25 125 M31.25 125 C11.1 126.72, -0.98 115.52, 0 93.75 M31.25 125 C9.59 124.49, -0.7 112.83, 0 93.75 M0 93.75 C-0.2 76.18, -0.77 60, 0 31.25 M0 93.75 C-0.42 71.36, -0.93 46.35, 0 31.25 M0 31.25 C-0.57 10.66, 11.94 0.47, 31.25 0 M0 31.25 C-0.04 11.2, 9.91 0.02, 31.25 0" stroke="#f2f2ef" stroke-width="1.6" fill="none"></path></g><g transform="translate(1416 135) rotate(0 43.77392578125 13.125)"><text x="0" y="18.79541015625" font-family="Arial, Helvetica, sans-serif" font-size="21px" fill="#f2f2ef" text-anchor="start" style="white-space: pre;" direction="ltr" dominant-baseline="alphabetic">Recipient</text></g><g transform="translate(1416 174) rotate(0 57.8173828125 12.5)"><text x="0" y="17.900390625" font-family="Arial, Helvetica, sans-serif" font-size="20px" fill="#aaa" text-anchor="start" style="white-space: pre;" direction="ltr" dominant-baseline="alphabetic">Public output</text></g><g stroke-linecap="round" transform="translate(1388 433) rotate(0 97.5 55)"><path d="M27.5 0 C64.81 1.52, 99.05 -0.17, 167.5 0 M27.5 0 C57.33 1.03, 88.02 0.55, 167.5 0 M167.5 0 C185.89 1.08, 193.16 7.71, 195 27.5 M167.5 0 C186.67 -0.68, 195.04 9.63, 195 27.5 M195 27.5 C195.04 46.49, 196.64 65.66, 195 82.5 M195 27.5 C194.74 45.33, 194.54 65.48, 195 82.5 M195 82.5 C197.03 99.41, 185.95 111.62, 167.5 110 M195 82.5 C194.16 99.87, 184.14 110.33, 167.5 110 M167.5 110 C124.57 110.25, 85.35 109.2, 27.5 110 M167.5 110 C130.12 111.25, 94.31 110.42, 27.5 110 M27.5 110 C10.11 109.28, -0.44 100.22, 0 82.5 M27.5 110 C7.41 109, -1.36 98.76, 0 82.5 M0 82.5 C-0.84 69.01, -0.01 50.42, 0 27.5 M0 82.5 C-1.33 68.41, -0.37 55.64, 0 27.5 M0 27.5 C0.47 9.13, 9.84 -0.44, 27.5 0 M0 27.5 C0.02 7.95, 10.79 2.2, 27.5 0" stroke="#f2f2ef" stroke-width="1.6" fill="none"></path></g><g transform="translate(1406 450) rotate(0 53.359375 12.5)"><text x="0" y="17.900390625" font-family="Arial, Helvetica, sans-serif" font-size="20px" fill="#f2f2ef" text-anchor="start" style="white-space: pre;" direction="ltr" dominant-baseline="alphabetic">Uniswap V2</text></g><g transform="translate(1406 489) rotate(0 76.1474609375 12.5)"><text x="0" y="17.900390625" font-family="Arial, Helvetica, sans-serif" font-size="20px" fill="#aaa" text-anchor="start" style="white-space: pre;" direction="ltr" dominant-baseline="alphabetic">Exact-input swap</text></g><g stroke-linecap="round"><g transform="translate(1288.5 325) rotate(0 50.25 -72.5)"><path d="M0 0 C-1.8 -51.95, -1.86 -101.3, -0.5 -145 M0 0 C-0.76 -32.64, -0.21 -66.25, -0.5 -145 M-0.5 -145 C23.26 -144.29, 47.87 -145.69, 101 -145 M-0.5 -145 C34.45 -144.82, 67.89 -144.32, 101 -145" stroke="#f2f2ef" stroke-width="1.6" fill="none"></path></g><g transform="translate(1288.5 325) rotate(0 50.25 -72.5)"><path d="M77.6 -136.19 C84.37 -140.75, 92.56 -143.05, 101 -145 M77.6 -136.19 C82.73 -137.98, 88.6 -140.82, 101 -145" stroke="#f2f2ef" stroke-width="1.6" fill="none"></path></g><g transform="translate(1288.5 325) rotate(0 50.25 -72.5)"><path d="M77.41 -153.29 C84.26 -151.93, 92.52 -148.32, 101 -145 M77.41 -153.29 C82.64 -151.23, 88.56 -150.22, 101 -145" stroke="#f2f2ef" stroke-width="1.6" fill="none"></path></g></g><mask></mask><g transform="translate(1218 262) rotate(0 33.539306640625 10.625)"><text x="0" y="15.21533203125" font-family="Arial, Helvetica, sans-serif" font-size="17px" fill="#aaa" text-anchor="start" style="white-space: pre;" direction="ltr" dominant-baseline="alphabetic">withdraw</text></g><g stroke-linecap="round"><g transform="translate(1370.5 426.5) rotate(0 4.5 14)"><path d="M0 0 C1.5 6.62, 3.62 14.52, 9 28 M0 0 C2.3 5.91, 3.71 12.92, 9 28" stroke="#f2f2ef" stroke-width="1.6" fill="none"></path></g><g transform="translate(1370.5 426.5) rotate(0 4.5 14)"><path d="M-0.12 16.47 C1.64 19.06, 3.83 22.59, 9 28 M-0.12 16.47 C2.14 18.75, 3.75 21.85, 9 28" stroke="#f2f2ef" stroke-width="1.6" fill="none"></path></g><g transform="translate(1370.5 426.5) rotate(0 4.5 14)"><path d="M9.42 13.3 C8.77 16.65, 8.55 20.98, 9 28 M9.42 13.3 C9.52 16.31, 8.95 20.12, 9 28" stroke="#f2f2ef" stroke-width="1.6" fill="none"></path></g></g><mask></mask><g transform="translate(1216 492) rotate(0 29.762451171875 10.625)"><text x="0" y="15.21533203125" font-family="Arial, Helvetica, sans-serif" font-size="17px" fill="#aaa" text-anchor="start" style="white-space: pre;" direction="ltr" dominant-baseline="alphabetic">or swap</text></g><g stroke-linecap="round"><g transform="translate(1488 424.5) rotate(0 0 -86)"><path d="M0 0 C-0.49 -36.94, -0.44 -75.57, 0 -172 M0 0 C-1.65 -51.65, -1.22 -104.02, 0 -172" stroke="#f2f2ef" stroke-width="1.6" fill="none"></path></g><g transform="translate(1488 424.5) rotate(0 0 -86)"><path d="M8.2 -148.38 C5.05 -152.94, 3.3 -158.99, 0 -172 M8.2 -148.38 C4.94 -155.26, 2.86 -162.72, 0 -172" stroke="#f2f2ef" stroke-width="1.6" fill="none"></path></g><g transform="translate(1488 424.5) rotate(0 0 -86)"><path d="M-8.9 -148.64 C-8.3 -153.06, -6.31 -159.05, 0 -172 M-8.9 -148.64 C-6.98 -155.3, -3.9 -162.68, 0 -172" stroke="#f2f2ef" stroke-width="1.6" fill="none"></path></g></g><mask></mask><g transform="translate(1496 318) rotate(0 22.2421875 10)"><text x="0" y="14.3203125" font-family="Arial, Helvetica, sans-serif" font-size="16px" fill="#aaa" text-anchor="start" style="white-space: pre;" direction="ltr" dominant-baseline="alphabetic">output</text></g><g stroke-linecap="round"><g transform="translate(28 558) rotate(0 770 0)"><path d="M0 0 C394.51 0, 789.02 0, 1540 0 M0 0 C333.26 0, 666.52 0, 1540 0" stroke="#444" stroke-width="1.6" fill="none"></path></g></g><mask></mask><g transform="translate(28 582) rotate(0 103.37890625 12.5)"><text x="0" y="17.900390625" font-family="Arial, Helvetica, sans-serif" font-size="20px" fill="#f2f2ef" text-anchor="start" style="white-space: pre;" direction="ltr" dominant-baseline="alphabetic">ETH-funded paymaster</text></g><g transform="translate(313 582) rotate(0 312.94921875 12.5)"><text x="0" y="17.900390625" font-family="Arial, Helvetica, sans-serif" font-size="20px" fill="#aaa" text-anchor="start" style="white-space: pre;" direction="ltr" dominant-baseline="alphabetic">No per-transaction operator signature. No token allowance to the DEX.</text></g></svg>